# Blender v3.3.1 OBJ File: 'frame.blend'
# www.blender.org
o Cube.003
v 0.100000 0.101743 0.799780
v 0.100000 0.098256 -0.800216
v 0.100000 -0.098256 0.800216
v 0.100000 -0.101743 -0.799780
v -0.100000 0.101743 0.799780
v -0.100000 0.098256 -0.800216
v -0.100000 -0.098256 0.800216
v -0.100000 -0.101743 -0.799780
v 0.100000 1.900000 0.706699
v 0.100000 -0.100000 0.706699
v 0.100000 1.900000 0.906699
v 0.100000 -0.100000 0.906700
v -0.100000 1.900000 0.706699
v -0.100000 -0.100000 0.706699
v -0.100000 1.900000 0.906699
v -0.100000 -0.100000 0.906700
v 0.100000 1.900000 -0.793300
v 0.100000 -0.100000 -0.793300
v 0.100000 1.900000 -0.593300
v 0.100000 -0.100000 -0.593300
v -0.100000 1.900000 -0.793300
v -0.100000 -0.100000 -0.793300
v -0.100000 1.900000 -0.593300
v -0.100000 -0.100000 -0.593300
v 0.100000 1.901743 0.906480
v 0.100000 1.898256 -0.693516
v 0.100000 1.701744 0.906916
v 0.100000 1.698257 -0.693081
v -0.100000 1.901743 0.906480
v -0.100000 1.898256 -0.693516
v -0.100000 1.701744 0.906916
v -0.100000 1.698257 -0.693081
vt 0.875000 0.500000
vt 0.625000 0.750000
vt 0.625000 0.500000
vt 0.375000 1.000000
vt 0.375000 0.750000
vt 0.625000 0.000000
vt 0.375000 0.250000
vt 0.375000 0.000000
vt 0.375000 0.500000
vt 0.125000 0.750000
vt 0.125000 0.500000
vt 0.625000 0.250000
vt 0.875000 0.750000
vt 0.625000 1.000000
vt 0.875000 0.500000
vt 0.625000 0.750000
vt 0.625000 0.500000
vt 0.375000 1.000000
vt 0.375000 0.750000
vt 0.625000 0.000000
vt 0.375000 0.250000
vt 0.375000 0.000000
vt 0.375000 0.500000
vt 0.125000 0.750000
vt 0.125000 0.500000
vt 0.625000 0.250000
vt 0.875000 0.750000
vt 0.625000 1.000000
vt 0.875000 0.500000
vt 0.625000 0.750000
vt 0.625000 0.500000
vt 0.375000 1.000000
vt 0.375000 0.750000
vt 0.625000 0.000000
vt 0.375000 0.250000
vt 0.375000 0.000000
vt 0.375000 0.500000
vt 0.125000 0.750000
vt 0.125000 0.500000
vt 0.625000 0.250000
vt 0.875000 0.750000
vt 0.625000 1.000000
vt 0.875000 0.500000
vt 0.625000 0.750000
vt 0.625000 0.500000
vt 0.375000 1.000000
vt 0.375000 0.750000
vt 0.625000 0.000000
vt 0.375000 0.250000
vt 0.375000 0.000000
vt 0.375000 0.500000
vt 0.125000 0.750000
vt 0.125000 0.500000
vt 0.625000 0.250000
vt 0.875000 0.750000
vt 0.625000 1.000000
vn 0.0000 0.0022 1.0000
vn 0.0000 -1.0000 0.0022
vn -1.0000 -0.0000 0.0000
vn 0.0000 -0.0022 -1.0000
vn 1.0000 -0.0000 0.0000
vn 0.0000 1.0000 -0.0022
vn 0.0000 1.0000 0.0000
vn 0.0000 0.0000 1.0000
vn 0.0000 -1.0000 0.0000
vn 0.0000 0.0000 -1.0000
s off
f 5/1/1 3/2/1 1/3/1
f 3/2/2 8/4/2 4/5/2
f 7/6/3 6/7/3 8/8/3
f 2/9/4 8/10/4 6/11/4
f 1/3/5 4/5/5 2/9/5
f 5/12/6 2/9/6 6/7/6
f 5/1/1 7/13/1 3/2/1
f 3/2/2 7/14/2 8/4/2
f 7/6/3 5/12/3 6/7/3
f 2/9/4 4/5/4 8/10/4
f 1/3/5 3/2/5 4/5/5
f 5/12/6 1/3/6 2/9/6
f 13/15/7 11/16/7 9/17/7
f 11/16/8 16/18/8 12/19/8
f 15/20/3 14/21/3 16/22/3
f 10/23/9 16/24/9 14/25/9
f 10/23/5 11/16/5 12/19/5
f 13/26/10 10/23/10 14/21/10
f 13/15/7 15/27/7 11/16/7
f 11/16/8 15/28/8 16/18/8
f 15/20/3 13/26/3 14/21/3
f 10/23/9 12/19/9 16/24/9
f 10/23/5 9/17/5 11/16/5
f 13/26/10 9/17/10 10/23/10
f 21/29/7 19/30/7 17/31/7
f 19/30/8 24/32/8 20/33/8
f 23/34/3 22/35/3 24/36/3
f 18/37/9 24/38/9 22/39/9
f 18/37/5 19/30/5 20/33/5
f 21/40/10 18/37/10 22/35/10
f 21/29/7 23/41/7 19/30/7
f 19/30/8 23/42/8 24/32/8
f 23/34/3 21/40/3 22/35/3
f 18/37/9 20/33/9 24/38/9
f 18/37/5 17/31/5 19/30/5
f 21/40/10 17/31/10 18/37/10
f 29/43/1 27/44/1 25/45/1
f 27/44/2 32/46/2 28/47/2
f 31/48/3 30/49/3 32/50/3
f 26/51/4 32/52/4 30/53/4
f 25/45/5 28/47/5 26/51/5
f 29/54/6 26/51/6 30/49/6
f 29/43/1 31/55/1 27/44/1
f 27/44/2 31/56/2 32/46/2
f 31/48/3 29/54/3 30/49/3
f 26/51/4 28/47/4 32/52/4
f 25/45/5 27/44/5 28/47/5
f 29/54/6 25/45/6 26/51/6
